<svg width="140" height="122" viewBox="0 0 140 122" fill="none" xmlns="http://www.w3.org/2000/svg">
<path d="M113.107 39.5625C104.416 34.9278 96.8553 40.6209 82.1065 36.5624C75.7162 34.8039 59.1547 21.4791 50.1065 19.5624C41.0583 17.6457 34.441 30.5623 27.1065 30.5624C18.7732 30.5624 -3.72095 66.6206 6.1065 71.5624C15.934 76.5041 37.1066 76.1389 50.1065 81.5624C61.3331 86.2461 73.1065 95.5624 86.1065 81.5624C99.3333 80.8465 116.268 83.4939 122.107 81.5624C134.19 77.565 128.107 47.5624 113.107 39.5625Z" fill="#E7F1D4"/>
<path fill-rule="evenodd" clip-rule="evenodd" d="M125.333 53.7989V61.7235V67.7235C122.499 69.7235 115.933 73.4235 112.333 72.2235C108.733 71.0235 110.833 69.7235 112.333 69.2235C114.166 65.5568 117.633 58.2235 116.833 58.2235C116.033 58.2235 113.499 54.8901 112.333 53.2235C108.166 54.8901 99.4326 57.6235 97.8326 55.2235C96.2326 52.8235 95.1659 50.5568 94.8326 49.7235C89.1659 50.8901 77.8326 53.6235 77.8326 55.2235C77.8326 55.8726 77.7273 56.4164 77.6192 56.9745C77.3942 58.1359 77.1572 59.3594 77.8326 61.7235C78.8326 65.2235 65.3326 67.7235 63.8326 67.7235H52.3326C50.4993 63.7235 47.2326 55.2235 48.8326 53.2235C50.8326 50.7235 50.3326 48.2235 46.8326 43.2235C44.0326 39.2235 39.6659 39.2235 37.8326 39.7235L30.3326 46.2235L36.3326 48.2235V58.2235C33.9993 59.3901 29.0326 62.0235 27.8326 63.2235C26.6326 64.4235 22.6659 60.3901 20.8326 58.2235C19.8326 55.0568 17.6326 48.2235 16.8326 46.2235C16.0564 44.2829 18.9832 38.1058 20.6803 35C11.0274 44.6639 -1.30696 67.8907 6.4391 71.7858C11.3484 74.2545 19.0887 75.3988 27.2272 76.6019C35.3805 77.8073 43.9332 79.0717 50.4391 81.7859C52.175 82.5101 53.9239 83.345 55.6884 84.1874C65.3358 88.7931 75.4492 93.6212 86.4391 81.7859C92.2851 81.4695 98.8553 81.81 104.872 82.1219C112.468 82.5157 119.181 82.8637 122.439 81.7859C130.389 79.156 130.475 65.2699 125.333 53.7989Z" fill="#D6DDC7"/>
</svg>
