<svg width="128" height="68" viewBox="0 0 128 68" fill="none" xmlns="http://www.w3.org/2000/svg">
<path d="M9.18694 65.7137C-6.40648 61.7253 2.30146 41.8315 3.51969 32.5252C3.51968 13.7137 16.187 8.71374 29.1869 0.713721C35.1486 -2.95497 40.0853 8.71369 59.187 8.71371C70.3673 8.71373 92.451 0.713706 105.187 0.713721C117.923 0.713736 134.846 39.7044 124.125 40.502C110.725 41.4991 102.197 46.4846 92.451 59.4469C82.7051 72.4092 76.2831 65.7137 53.0853 65.7137C37.485 65.7137 28.6787 70.6992 9.18694 65.7137Z" fill="#F6D9B1"/>
<path fill-rule="evenodd" clip-rule="evenodd" d="M2.18418 38.905C-0.174349 48.9078 -3.35836 62.4115 9.18694 65.6203C22.0413 68.9081 30.2484 67.8594 38.8217 66.764C43.2485 66.1984 47.773 65.6203 53.0853 65.6203C60.0227 65.6203 65.4598 66.2191 69.9341 66.7119C80.4214 67.8668 85.6196 68.4393 92.451 59.3535C102.197 46.3912 110.725 41.4057 124.125 40.4086C132.099 39.8153 124.78 18.0919 115.265 7C114.847 7.16916 114.43 7.34732 114.015 7.52842C112.564 8.16046 111.145 8.85249 109.727 9.54426C108.097 10.3394 106.468 11.1343 104.791 11.8373C104.677 11.8853 104.56 11.934 104.442 11.9832C103.466 12.3892 102.384 12.8399 101.521 13.3947C100.495 14.0541 100.816 15.7948 101.105 16.7345C101.196 17.0295 101.245 17.2629 101.289 17.4684C101.394 17.9657 101.464 18.3001 102.005 18.9495C102.936 20.0661 104.289 21.8284 104.289 23.3622C104.289 25.4292 103.251 25.9179 101.552 26.7176C101.375 26.8006 101.192 26.887 101.002 26.9788C100.439 27.2503 99.9058 27.6077 99.3741 27.9639C98.7629 28.3734 98.1539 28.7813 97.5061 29.0554C97.1145 29.2211 97.1868 29.3209 97.3245 29.5108C97.3835 29.5922 97.4545 29.6901 97.5061 29.8168C97.5904 30.0239 97.6981 30.2617 97.8155 30.5212C98.4719 31.9716 99.436 34.1017 98.3713 35.3543C97.2284 36.6989 95.6344 37.2573 94.0017 37.8293C93.6648 37.9474 93.3262 38.066 92.9896 38.1922C91.9994 38.5635 91.0198 38.9746 90.0392 39.386C87.8559 40.3021 85.6681 41.2201 83.3509 41.7051C81.1066 42.1748 80.6168 42.7212 80.6168 44.8718C80.6168 45.3583 80.652 45.9395 80.6901 46.5679C80.8188 48.6919 80.9803 51.3556 79.9246 52.7281C79.62 53.1241 77.507 52.9571 76.2142 52.855C75.8093 52.823 75.4848 52.7973 75.3215 52.7973C73.2543 52.7973 69.897 52.7522 69.4207 50.1324C68.9478 47.532 70.8858 45.1362 72.6022 43.0143C73.2541 42.2083 73.8741 41.4419 74.3179 40.7187C76.5403 37.0969 74.4329 36.5587 71.391 35.7818C69.3384 35.2576 66.8603 34.6248 65.0001 32.8624C63.5148 31.4553 63.471 29.4595 63.4329 27.725C63.3882 25.6889 63.3514 24.0129 61.0001 24.0717C59.9369 24.0982 58.2945 22.8597 56.6397 21.6117C54.8017 20.2256 52.9483 18.8279 51.8565 19.1398C49.4365 19.8313 49.532 23.0132 51.6488 24.0717C54.06 25.2773 56.6193 26.8355 57.7227 29.263C58.5108 30.9967 58.4936 30.9887 57.9123 30.7165C57.2394 30.4014 55.8109 29.7324 54.0001 31C53.4797 31.3643 53.0067 31.7033 52.5734 32.0139C49.3526 34.3229 48.3287 35.0569 46.3536 32.8624C45.7168 32.1549 45.2489 32.0722 44.8317 31.9984C44.3785 31.9183 43.9851 31.8488 43.5001 31C43.3336 30.7088 42.8599 31.343 42.3323 32.0495C41.5456 33.1027 40.6391 34.3163 40.4527 32.8624C38.874 33.7621 37.8539 34.2181 37.1952 34.5125C36.0755 35.013 36.0001 35.0467 36.0001 36C36.0001 36.7845 36.6812 36.777 37.3837 36.7693C38.0854 36.7616 38.8085 36.7537 38.8953 37.5347C39.001 38.4862 39.4206 39.2647 39.8478 40.0573C40.0601 40.4512 40.2742 40.8486 40.4527 41.2725C40.6706 41.79 40.9213 42.2488 41.1652 42.6952C41.6582 43.5974 42.1236 44.4492 42.2351 45.6332C42.3533 46.8896 42.0655 48.0082 41.7505 49.198C41.7246 49.296 41.6993 49.3924 41.6743 49.4876C41.3904 50.5691 41.152 51.4775 40.5738 52.4686C39.8898 53.6412 38.2863 54.2389 36.9678 54.7304C36.7403 54.8152 36.5212 54.8968 36.3169 54.9777C35.1811 55.4273 31.2256 56.7967 29.9142 55.843C29.6434 55.6461 29.1566 54.2878 28.6411 52.8495C28.0307 51.1464 27.38 49.3309 27.0001 49.198C26.2919 48.9501 23.8374 49.3122 21.2385 49.6956C18.0825 50.1612 14.7135 50.6582 14 50.1324C12.8311 49.2712 15.7875 46.7417 18.8442 44.1265C21.9628 41.4583 25.1858 38.7008 24.2383 37.5347C23.2819 36.3576 20.395 35.0602 17.3143 33.6757C12.9939 31.7341 8.2924 29.6213 8.00006 27.4288C7.54165 23.9907 9.24467 23.9051 11.4034 23.7967C13.3366 23.6996 15.6352 23.5842 17.0741 21.026C17.2783 20.6631 17.5152 20.2845 17.7602 19.8932C18.8775 18.1081 20.161 16.0573 19.2545 14.0177C18.8171 13.0334 18.4661 11.7743 18.1033 10.4731C17.8588 9.59587 17.6089 8.69946 17.3236 7.85507C9.43203 13.1747 3.51969 19.58 3.51969 32.4318C3.28156 34.2509 2.75724 36.4746 2.18418 38.905Z" fill="#EBC99A"/>
</svg>
