<svg width="119" height="75" viewBox="0 0 119 75" fill="none" xmlns="http://www.w3.org/2000/svg">
<path d="M65.9756 60.3049C85.6723 58.4829 95.4183 50.7718 97.7608 43.1426C100.103 35.5134 113.107 34.2406 113.241 26.5171C113.38 18.5559 106.404 16.6336 99.1736 13.1496C91.9428 9.66568 94.831 5.359 84.7207 7.8765C78.2296 9.49281 69.4942 10.5477 47.3178 15.189C25.1415 19.8302 17.0864 29.1654 7.01299 35.8512C-2.54335 42.1939 14.6758 45.7458 26.2047 53.9142C48.74 69.881 57.8195 61.0594 65.9756 60.3049Z" fill="#FCF4D7"/>
<path fill-rule="evenodd" clip-rule="evenodd" d="M98.529 43.4301C96.1865 51.0593 86.4406 58.7703 66.7439 60.5924C65.0056 60.7532 63.2253 61.2804 61.2817 61.856C54.1063 63.9812 44.7053 66.7654 26.9729 54.2017C23.3431 51.6299 19.1492 49.5157 15.4045 47.628C9.32344 44.5625 4.42698 42.0942 5.05425 39.233L11.7683 42.7874H21.7683C30.1016 41.2874 46.8683 39.1874 47.2683 42.7874C47.6683 46.3874 56.1016 52.2874 60.2683 54.7874L78.2683 46.2874V30.7874L88.7683 23.2874C89.4349 24.1208 91.5683 25.8874 94.7683 26.2874C97.9683 26.6874 103.102 24.4541 105.268 23.2874C103.642 20.712 101.486 16.1743 103.32 15C109.197 17.6784 114.126 20.1 114.009 26.8046C113.938 30.8733 110.296 33.1519 106.523 35.5126C103.133 37.6332 99.6375 39.82 98.529 43.4301Z" fill="#F0E4B8"/>
</svg>
