<svg width="128" height="74" viewBox="0 0 128 74" fill="none" xmlns="http://www.w3.org/2000/svg">
<path d="M77.6696 11.7168C94.5701 12.1357 108.854 24.748 113.883 31.0018C138.78 36.2158 117.08 64.7694 106.593 59.453C96.1062 54.1365 76.0453 58.5295 64.8152 63.4083C43.5062 72.6658 27.7903 70.6993 16.4409 67.9882C5.0915 65.2772 4.85469 62.7759 4.02584 54.0213C3.19699 45.2667 15.6753 35.5603 21.6798 28.6825C26.4833 23.1802 31.0994 11.9197 37.3801 7.96008C43.768 9.03778 60.769 11.2979 77.6696 11.7168Z" fill="white"/>
<path fill-rule="evenodd" clip-rule="evenodd" d="M99.893 19C106.376 23.0322 111.336 27.8648 113.896 31.049C138.794 36.263 117.093 64.8166 106.606 59.5002C96.1197 54.1837 76.0588 58.5767 64.8287 63.4555C43.5197 72.7129 27.8038 70.7465 16.4544 68.0354C5.105 65.3243 4.86819 62.823 4.03934 54.0685C3.39986 47.3141 10.6814 39.9932 16.7997 33.8419C18.6115 32.0202 20.3214 30.3011 21.6933 28.7297C22.6544 27.6288 23.608 26.2973 24.569 24.8399C24.7225 24.74 24.8709 24.6423 25.0135 24.5472C26.5135 27.3805 28.6135 33.8472 25.0135 37.0472C20.5135 41.0472 18.5135 49.0472 19.5135 51.5472C20.3135 53.5472 23.5135 57.7139 25.0135 59.5472C29.6802 59.5472 39.2135 58.7472 40.0135 55.5472C40.4474 53.8114 42.1054 53.3938 43.7207 52.9869C45.8279 52.4561 47.8626 51.9436 47.0135 48.5472C45.8516 43.8996 46.7897 42.5521 48.6659 39.8569C49.2119 39.0726 49.8373 38.1742 50.5135 37.0472C52.9135 33.0472 57.5135 30.3805 59.5135 29.5472L63.0135 37.0472C63.0135 35.7139 63.4135 33.8472 65.0135 37.0472C65.714 38.4482 66.4145 39.2972 66.9432 39.9379C67.9238 41.1263 68.313 41.598 67.0135 43.5472C63.0135 51.5472 76.5135 51.5472 78.5135 51.5472C80.5135 51.5472 86.5135 42.5472 85.5135 41.0472C85.3342 40.7782 84.9618 40.3484 84.5177 39.8356C82.4852 37.4892 78.9482 33.4059 85.5135 35.0472C89.9515 37.0955 93.2824 38.3863 95.6851 39.3174C100.32 41.1137 101.501 41.5714 100.513 43.5472C99.0135 46.5472 100.513 47.0472 104.013 46.5472C106.814 46.1472 109.513 42.7139 110.513 41.0472C110.847 39.0472 110.413 35.0472 106.013 35.0472C101.613 35.0472 104.18 31.3805 106.013 29.5472C104.68 27.7139 101.713 24.1472 100.513 24.5472C99.8793 24.7586 99.7758 22.1862 99.893 19Z" fill="#F9EFEF"/>
</svg>
