<svg width="140" height="111" viewBox="0 0 140 111" fill="none" xmlns="http://www.w3.org/2000/svg">
<path d="M44.049 85.5095L25.1866 49.0649C5.40463 42.0168 19.1877 33.1271 17.4984 22.971C15.809 12.8149 36.5978 17.037 45.2055 13.7344C53.8132 10.4318 71.5814 23.1319 80.0593 26.1525C88.5373 29.1731 101.39 34.8138 110.939 31.8468C120.489 28.8798 125.081 51.7472 131.274 58.2002C136.229 63.3626 124.063 70.4931 117.361 73.4131C113.907 72.1825 104.767 70.6244 95.8363 74.2366C84.6733 78.752 75.9359 88.3778 69.0063 86.9705C63.4626 85.8446 50.0582 85.5274 44.049 85.5095Z" fill="white"/>
<path fill-rule="evenodd" clip-rule="evenodd" d="M24.799 50.0977L43.6615 86.5423C49.6707 86.5601 63.0751 86.8773 68.6187 88.0032C72.7513 88.8425 77.5268 85.7579 83.0764 82.1733C86.8324 79.7471 90.943 77.092 95.4487 75.2694C104.379 71.6571 113.52 73.2153 116.974 74.4459C123.676 71.5259 135.841 64.3953 130.886 59.233C129.034 57.3028 127.325 53.9041 125.583 50.1674C116.964 45.3963 119.243 48.6636 121.612 51.0328L120.112 58.5328L115.612 62.5328C113.612 60.1994 109.812 54.8328 110.612 52.0328C111.443 49.1259 105.376 44.1495 102.722 41.9736C102.181 41.5296 101.782 41.2022 101.612 41.0328C101.044 40.464 98.0486 41.5128 94.3752 42.799C91.5902 43.7742 88.4154 44.8859 85.6125 45.5328C81.0625 46.5828 85.0875 49.3478 89.1125 52.1128C90.8375 53.2978 92.5625 54.4828 93.6125 55.5328C95.9338 57.854 95.176 59.0756 93.3813 61.969C92.47 63.4382 91.2912 65.3385 90.1125 68.0328C87.1894 74.7141 83.9176 71.9792 80.8796 69.4397C80.28 68.9385 79.6894 68.4449 79.1125 68.0328C77.4295 66.8306 74.128 67.7095 71.1536 68.5012C67.9424 69.356 65.1125 70.1093 65.1125 68.0328C65.1125 64.0328 74.6125 62.5328 76.6125 62.5328C78.2125 62.5328 78.9458 57.8661 79.1125 55.5328C75.1125 51.0328 65.7125 41.4328 60.1125 39.0328C55.1125 39.0328 54.6125 45.5328 65.1125 52.0328C72.6776 56.7159 65.7079 58.8036 59.9116 60.5398C57.6629 61.2133 55.5908 61.834 54.6125 62.5328C51.419 64.8138 43.2306 53.7748 38.4026 47.2661C37.9391 46.6413 37.5066 46.0583 37.1125 45.5328C34.3782 41.887 34.2283 41.7487 33.7465 41.3042C33.4354 41.0171 32.9858 40.6023 31.6125 39.0328C29.0957 36.1564 29.94 33.7971 30.7988 31.3971C31.1343 30.4596 31.472 29.5159 31.6125 28.5328C32.0125 25.7328 22.7792 21.6994 18.1125 20.0328C18.0749 20.022 18.0364 20.0111 17.9972 20C17.1773 20.9983 16.8271 22.2983 17.1108 24.0038C17.6611 27.3118 16.5698 30.4854 15.5316 33.5049C13.3824 39.7555 11.4604 45.3452 24.799 50.0977Z" fill="#F6ECEC"/>
</svg>
