<svg width="392" height="488" viewBox="0 0 392 488" fill="none" xmlns="http://www.w3.org/2000/svg">
<ellipse cx="202.5" cy="450" rx="176.5" ry="38" fill="#8C90CD"/>
<path d="M27.647 46.9679H371.647L332.696 450.968C332.696 450.968 310.147 475.468 195.647 475.468C81.147 475.468 71.0827 450.968 71.0827 450.968L27.647 46.9679Z" fill="#423064"/>
<mask id="mask0_1_59" style="mask-type:alpha" maskUnits="userSpaceOnUse" x="28" y="29" width="344" height="445">
<path d="M28 29H372L333.049 448.557C333.049 448.557 310.5 474 196 474C81.5 474 71.4357 448.557 71.4357 448.557L28 29Z" fill="#4F3C75"/>
</mask>
<g mask="url(#mask0_1_59)">
<g filter="url(#filter0_f_1_59)">
<ellipse cx="205" cy="325" rx="205" ry="224" fill="#584382"/>
</g>
</g>
<path d="M19.6469 10.4679C45.1473 -7.03207 123.647 2.46793 196.647 3.4679C269.647 4.46787 365.147 -7.03207 383.647 10.4679C402.147 27.9678 381.647 76.4679 373.647 81.4679C365.647 86.4679 344.647 63.2791 305.647 57.9678C266.647 52.6566 225.263 67.0546 196.647 64.968C148.647 61.468 126.647 46.9679 87.6467 57.9678C48.6467 68.9677 30.1471 97.468 22.647 81.4679C21.7419 79.537 19.2694 77.1183 17.0441 74.3677C14.7642 71.5497 10.6168 69.8545 7.51198 67.9839C5.02774 66.4871 3.02944 63.8929 2.14697 61.4679C-3.94854 44.7172 3.26049 21.7132 19.6469 10.4679Z" fill="#2F2B39"/>
<path d="M179.147 43.4679C129.147 43.4679 45.2157 28.8649 32.1469 26.875C19.0782 24.8851 24.3611 4.98564 74.147 8.46788C123.933 11.9501 190.207 14.4642 227.647 11.9679C265.087 9.47153 381.647 -0.5321 378.647 22.9679C377.634 30.9035 229.147 43.4679 179.147 43.4679Z" fill="url(#paint0_radial_1_59)"/>
<path d="M160.703 242.844L171.637 223.906L175.534 226.156L191.934 197.75C196.746 189.417 208.774 189.417 213.585 197.75L229.985 226.156L233.882 223.906L244.816 242.844L240.919 245.094L257.319 273.5C262.131 281.833 256.116 292.25 246.494 292.25H213.693V296.75H191.826V292.25H159.025C149.403 292.25 143.389 281.833 148.2 273.5L164.6 245.094L160.703 242.844Z" stroke="white" stroke-width="9" stroke-dasharray="60 20"/>
<path d="M170.475 235.562L170.237 257.881L151.027 246.516L170.475 235.562Z" fill="white"/>
<path d="M237.475 217.562L237.237 239.881L218.027 228.516L237.475 217.562Z" fill="white"/>
<path d="M220.475 280.562L220.237 302.881L201.027 291.516L220.475 280.562Z" fill="white"/>
<defs>
<filter id="filter0_f_1_59" x="-20" y="81" width="450" height="488" filterUnits="userSpaceOnUse" color-interpolation-filters="sRGB">
<feFlood flood-opacity="0" result="BackgroundImageFix"/>
<feBlend mode="normal" in="SourceGraphic" in2="BackgroundImageFix" result="shape"/>
<feGaussianBlur stdDeviation="10" result="effect1_foregroundBlur_1_59"/>
</filter>
<radialGradient id="paint0_radial_1_59" cx="0" cy="0" r="1" gradientUnits="userSpaceOnUse" gradientTransform="translate(151.147 -65.0321) rotate(91.2454) scale(92.0217 573.392)">
<stop stop-color="#D9D9D9"/>
<stop offset="1" stop-color="#D9D9D9" stop-opacity="0"/>
</radialGradient>
</defs>
</svg>
